<?xml version="1.0" standalone="no"?>
<!DOCTYPE svg PUBLIC "-//W3C//DTD SVG 20010904//EN"
 "http://www.w3.org/TR/2001/REC-SVG-20010904/DTD/svg10.dtd">
<svg version="1.0" xmlns="http://www.w3.org/2000/svg"
 width="500.000000pt" height="500.000000pt" viewBox="0 0 500.000000 500.000000"
 preserveAspectRatio="xMidYMid meet">
<metadata>
Created by potrace 1.11, written by Peter Selinger 2001-2013
</metadata>
<g transform="translate(0.000000,500.000000) scale(0.100000,-0.100000)"
fill="#000000" stroke="none">
<path d="M2225 4975 c-66 -7 -135 -16 -152 -19 -18 -3 -47 -8 -64 -11 -432
-74 -878 -304 -1218 -628 -61 -58 -174 -178 -206 -218 -11 -13 -36 -45 -56
-69 -117 -144 -267 -412 -348 -616 -51 -128 -111 -324 -118 -386 -5 -44 -3
-50 30 -83 l35 -35 351 0 c289 0 357 3 380 15 23 11 41 43 95 169 88 206 124
274 200 380 248 345 621 578 1061 662 110 21 431 25 545 6 242 -40 457 -122
649 -250 93 -61 222 -166 221 -179 0 -4 -106 -114 -235 -244 -149 -149 -240
-249 -250 -272 -32 -78 -14 -167 48 -227 64 -63 34 -61 888 -58 l775 3 42 28
c23 15 54 46 69 69 l28 42 3 768 c2 522 -1 782 -8 809 -32 116 -176 182 -284
129 -25 -12 -128 -107 -261 -240 -189 -189 -222 -218 -236 -207 -9 7 -61 50
-115 95 -331 280 -803 493 -1219 552 -44 6 -93 13 -110 16 -71 12 -427 11
-540 -1z"/>
<path d="M119 2050 c-48 -25 -96 -81 -108 -127 -7 -25 -11 -294 -11 -784 0
-839 -2 -818 69 -882 70 -64 178 -73 251 -22 19 14 129 119 244 235 l209 210
41 -35 c412 -356 822 -552 1311 -626 160 -24 559 -26 720 -3 543 75 987 297
1381 689 233 232 383 447 516 740 83 180 181 491 172 544 -3 14 -18 38 -34 54
l-30 27 -349 0 c-317 0 -351 -2 -370 -17 -12 -10 -48 -81 -82 -158 -95 -221
-133 -293 -214 -400 -262 -350 -617 -569 -1050 -650 -106 -20 -347 -27 -460
-14 -271 31 -528 126 -751 277 -84 57 -196 146 -202 162 -1 3 103 112 232 242
156 157 240 248 251 274 38 89 3 197 -82 254 l-37 25 -790 2 c-762 2 -792 2
-827 -17z"/>
</g>
</svg>
